<svg xmlns="http://www.w3.org/2000/svg" fill="none" viewBox="0 0 59 26" class="css-1oq517x">
  <path fill="#fff" d="M5.705 22.344V5.916c0-1.694-.272-4.483 1.708-5.2V.603H0v.115c1.98.715 1.746 3.465 1.746 5.199V20.12c0 1.697.233 4.484-1.746 5.162v.114h15.952l2.02-5.012h-.118c-1.94 1.583-4.231 2.448-6.869 2.3l-5.28-.341v.001zm19.564-9.045h2.872c1.204 0 2.834-.075 3.456 1.054h.117v-3.99h-.117c-.465.227-1.09.227-1.67.227h-4.658V3.58c1.244-.228 2.6-.266 3.961-.266 1.784 0 3.376.152 4.58 1.473h.116V.414h-.117c-.505.265-1.166.188-1.825.188H19.561v.115c1.983.715 1.749 3.465 1.749 5.199V20.12c0 1.697.234 4.484-1.749 5.162v.114h7.337v-.114c-1.938-.716-1.63-3.466-1.63-5.16v-6.823zM56.523.94C54.23.414 51.823 0 49.457 0 41.499 0 35.83 5.162 35.83 12.96 35.831 21.026 41.5 26 50.66 26c2.019 0 4.037-.303 5.864-1.133l1.977-4.37h-.116c-2.446 1.359-5.358 2.373-8.268 2.373-5.978 0-9.86-4.935-9.86-10.474 0-5.462 3.727-9.267 9.083-9.267 2.563 0 5.046.828 7.184 2.146V.94z"/>
</svg>
